<?xml version="1.0" standalone="no"?>
<!DOCTYPE svg PUBLIC "-//W3C//DTD SVG 20010904//EN"
 "http://www.w3.org/TR/2001/REC-SVG-20010904/DTD/svg10.dtd">
<svg version="1.0" xmlns="http://www.w3.org/2000/svg"
 width="400.000000pt" height="400.000000pt" viewBox="0 0 400.000000 400.000000"
 preserveAspectRatio="xMidYMid meet">
<metadata>
Created by potrace 1.14, written by Peter Selinger 2001-2017
</metadata>
<g transform="translate(0.000000,400.000000) scale(0.100000,-0.100000)"
fill="#000000" stroke="none">
<path d="M1949 3996 c-2 -2 -41 -6 -87 -9 -80 -6 -300 -50 -332 -67 -8 -4 -29
-10 -45 -13 -17 -2 -52 -14 -77 -26 -26 -11 -50 -21 -53 -21 -3 0 -58 -25
-123 -57 -100 -48 -219 -118 -272 -160 -8 -6 -51 -40 -95 -74 -177 -138 -371
-366 -481 -564 -60 -107 -134 -259 -134 -273 0 -6 -6 -23 -14 -39 -13 -27 -33
-90 -76 -238 -61 -217 -85 -637 -47 -835 7 -37 16 -90 22 -133 14 -106 101
-379 149 -472 l16 -30 -50 -7 c-99 -15 -216 -100 -240 -174 -14 -42 -1 -137
32 -229 36 -102 78 -132 221 -162 81 -16 88 -16 141 0 31 10 75 33 100 51 82
63 73 65 165 -35 46 -49 90 -89 97 -89 8 0 14 -4 14 -8 0 -12 95 -61 132 -67
17 -3 46 -12 63 -20 98 -46 221 -58 341 -34 107 22 165 46 219 93 l40 34 0
110 c-1 63 -5 116 -12 123 -6 8 -15 30 -22 49 -15 47 -52 118 -90 175 -17 25
-31 50 -31 55 0 5 -6 13 -13 17 -7 4 -20 19 -29 33 -9 14 -31 41 -50 62 -62
66 -60 63 -36 90 32 33 67 89 118 183 41 76 44 84 43 162 0 97 -33 216 -72
262 -32 37 -157 87 -225 89 -45 2 -52 -1 -88 -38 -56 -59 -95 -142 -101 -212
-2 -24 -14 -12 -25 25 -30 101 -42 146 -47 177 -3 19 -8 42 -10 50 -10 37 -15
83 -21 200 -6 114 -3 149 21 260 3 14 7 45 9 70 12 118 128 374 232 514 86
114 155 182 284 283 54 42 160 105 180 108 3 0 45 17 94 39 49 21 100 40 115
42 14 3 46 10 71 15 84 20 145 24 300 22 158 -2 275 -21 415 -68 48 -17 215
-94 225 -105 3 -3 30 -21 60 -40 30 -19 59 -40 63 -47 4 -7 13 -13 19 -13 9 0
202 -191 242 -240 25 -30 93 -137 107 -168 8 -18 17 -32 21 -32 5 0 8 -4 8 -9
0 -6 18 -47 39 -93 32 -67 57 -132 66 -168 1 -3 4 -12 8 -20 3 -8 9 -33 12
-55 3 -22 12 -64 20 -95 20 -80 26 -139 25 -285 0 -163 -5 -215 -31 -340 -19
-94 -26 -120 -45 -170 -4 -11 -8 -24 -8 -30 -2 -23 -60 -161 -74 -177 -8 -10
-12 -18 -8 -18 16 0 -117 -206 -195 -301 -77 -94 -162 -175 -269 -256 -52 -40
-107 -81 -122 -93 -14 -11 -31 -20 -37 -20 -6 0 -11 -4 -11 -10 0 -5 -13 -16
-29 -25 -16 -8 -35 -20 -43 -27 -25 -23 -51 -38 -183 -103 -158 -77 -223 -92
-329 -74 -91 15 -110 10 -95 -28 21 -55 66 -89 189 -140 30 -13 71 -26 90 -29
19 -4 44 -9 55 -11 50 -11 246 -12 272 -2 15 6 36 12 45 14 10 2 32 10 50 18
18 8 60 27 93 41 33 15 71 34 85 42 14 8 37 20 53 25 15 6 27 15 27 20 0 5 5
9 11 9 15 0 148 90 244 165 124 97 252 230 365 380 16 22 34 45 40 52 5 7 10
17 10 22 0 5 6 16 13 23 35 36 197 357 197 390 0 8 4 18 9 24 19 20 97 338
107 438 3 34 10 81 14 106 8 44 6 335 -3 375 -3 11 -8 56 -12 100 -4 44 -13
107 -20 140 -8 33 -17 76 -20 95 -10 61 -75 237 -131 357 -19 40 -34 76 -34
80 0 4 -9 19 -20 33 -11 14 -20 30 -20 37 0 7 -10 28 -22 47 -13 19 -38 59
-57 89 -18 30 -44 68 -57 83 -111 133 -187 217 -258 283 -28 25 -60 56 -72 69
-12 12 -24 22 -28 22 -3 0 -15 8 -25 18 -39 35 -54 45 -149 101 -194 116 -442
222 -546 235 -17 2 -58 11 -91 19 -33 8 -82 18 -110 22 -56 7 -360 16 -366 11z"/>
</g>
</svg>
